<?xml version="1.0" encoding="UTF-8"?>
<svg width="200px" height="202px" viewBox="0 0 200 202" version="1.1" xmlns="http://www.w3.org/2000/svg" xmlns:xlink="http://www.w3.org/1999/xlink">
    <!-- Generator: Sketch 60 (88103) - https://sketch.com -->
    <title>Units/CobaltWiki/Background Copy 3</title>
    <desc>Created with Sketch.</desc>
    <g id="Website-Mocks" stroke="none" stroke-width="1" fill="none" fill-rule="evenodd">
        <g id="Minimalist-1-Copy-7" transform="translate(-399.000000, -555.000000)">
            <g id="Units/CobaltWiki/Background-Copy-6" transform="translate(499.000000, 656.000000) rotate(-90.000000) translate(-499.000000, -656.000000) translate(399.000000, 556.000000)">
                <g id="⚒-ProTool-🔗">
                    <g id="05-Styles/Add-a-Shadow…-🔗-" stroke="#979797" stroke-width="2"></g>
                    <g id="05-Styles/Add-a-Style…-🔗-"></g>
                </g>
                <path d="M-1,0 L-1,2 L1,2 L1,0 L-1,0 Z M-1,22 L-1,24 L1,24 L1,22 L-1,22 Z M-1,44 L-1,46 L1,46 L1,44 L-1,44 Z M-1,66 L-1,68 L1,68 L1,66 L-1,66 Z M-1,88 L-1,90 L1,90 L1,88 L-1,88 Z M-1,110 L-1,112 L1,112 L1,110 L-1,110 Z M-1,132 L-1,134 L1,134 L1,132 L-1,132 Z M-1,154 L-1,156 L1,156 L1,154 L-1,154 Z M-1,176 L-1,178 L1,178 L1,176 L-1,176 Z M-1,198 L-1,200 L1,200 L1,198 L-1,198 Z" id="Line" fill="#0A7FFF" fill-rule="nonzero"></path>
                <path d="M19,0 L19,2 L21,2 L21,0 L19,0 Z M19,22 L19,24 L21,24 L21,22 L19,22 Z M19,44 L19,46 L21,46 L21,44 L19,44 Z M19,66 L19,68 L21,68 L21,66 L19,66 Z M19,88 L19,90 L21,90 L21,88 L19,88 Z M19,110 L19,112 L21,112 L21,110 L19,110 Z M19,132 L19,134 L21,134 L21,132 L19,132 Z M19,154 L19,156 L21,156 L21,154 L19,154 Z M19,176 L19,178 L21,178 L21,176 L19,176 Z M19,198 L19,200 L21,200 L21,198 L19,198 Z" id="Line-Copy" fill="#0A7FFF" fill-rule="nonzero"></path>
                <path d="M39,0 L39,2 L41,2 L41,0 L39,0 Z M39,22 L39,24 L41,24 L41,22 L39,22 Z M39,44 L39,46 L41,46 L41,44 L39,44 Z M39,66 L39,68 L41,68 L41,66 L39,66 Z M39,88 L39,90 L41,90 L41,88 L39,88 Z M39,110 L39,112 L41,112 L41,110 L39,110 Z M39,132 L39,134 L41,134 L41,132 L39,132 Z M39,154 L39,156 L41,156 L41,154 L39,154 Z M39,176 L39,178 L41,178 L41,176 L39,176 Z M39,198 L39,200 L41,200 L41,198 L39,198 Z" id="Line-Copy-2" fill="#0A7FFF" fill-rule="nonzero"></path>
                <path d="M59,0 L59,2 L61,2 L61,0 L59,0 Z M59,22 L59,24 L61,24 L61,22 L59,22 Z M59,44 L59,46 L61,46 L61,44 L59,44 Z M59,66 L59,68 L61,68 L61,66 L59,66 Z M59,88 L59,90 L61,90 L61,88 L59,88 Z M59,110 L59,112 L61,112 L61,110 L59,110 Z M59,132 L59,134 L61,134 L61,132 L59,132 Z M59,154 L59,156 L61,156 L61,154 L59,154 Z M59,176 L59,178 L61,178 L61,176 L59,176 Z M59,198 L59,200 L61,200 L61,198 L59,198 Z" id="Line-Copy-3" fill="#0A7FFF" fill-rule="nonzero"></path>
                <path d="M79,0 L79,2 L81,2 L81,0 L79,0 Z M79,22 L79,24 L81,24 L81,22 L79,22 Z M79,44 L79,46 L81,46 L81,44 L79,44 Z M79,66 L79,68 L81,68 L81,66 L79,66 Z M79,88 L79,90 L81,90 L81,88 L79,88 Z M79,110 L79,112 L81,112 L81,110 L79,110 Z M79,132 L79,134 L81,134 L81,132 L79,132 Z M79,154 L79,156 L81,156 L81,154 L79,154 Z M79,176 L79,178 L81,178 L81,176 L79,176 Z M79,198 L79,200 L81,200 L81,198 L79,198 Z" id="Line-Copy-4" fill="#0A7FFF" fill-rule="nonzero"></path>
                <path d="M99,0 L99,2 L101,2 L101,0 L99,0 Z M99,22 L99,24 L101,24 L101,22 L99,22 Z M99,44 L99,46 L101,46 L101,44 L99,44 Z M99,66 L99,68 L101,68 L101,66 L99,66 Z M99,88 L99,90 L101,90 L101,88 L99,88 Z M99,110 L99,112 L101,112 L101,110 L99,110 Z M99,132 L99,134 L101,134 L101,132 L99,132 Z M99,154 L99,156 L101,156 L101,154 L99,154 Z M99,176 L99,178 L101,178 L101,176 L99,176 Z M99,198 L99,200 L101,200 L101,198 L99,198 Z" id="Line-Copy-5" fill="#0A7FFF" fill-rule="nonzero"></path>
                <path d="M119,0 L119,2 L121,2 L121,0 L119,0 Z M119,22 L119,24 L121,24 L121,22 L119,22 Z M119,44 L119,46 L121,46 L121,44 L119,44 Z M119,66 L119,68 L121,68 L121,66 L119,66 Z M119,88 L119,90 L121,90 L121,88 L119,88 Z M119,110 L119,112 L121,112 L121,110 L119,110 Z M119,132 L119,134 L121,134 L121,132 L119,132 Z M119,154 L119,156 L121,156 L121,154 L119,154 Z M119,176 L119,178 L121,178 L121,176 L119,176 Z M119,198 L119,200 L121,200 L121,198 L119,198 Z" id="Line-Copy-6" fill="#0A7FFF" fill-rule="nonzero"></path>
                <path d="M139,0 L139,2 L141,2 L141,0 L139,0 Z M139,22 L139,24 L141,24 L141,22 L139,22 Z M139,44 L139,46 L141,46 L141,44 L139,44 Z M139,66 L139,68 L141,68 L141,66 L139,66 Z M139,88 L139,90 L141,90 L141,88 L139,88 Z M139,110 L139,112 L141,112 L141,110 L139,110 Z M139,132 L139,134 L141,134 L141,132 L139,132 Z M139,154 L139,156 L141,156 L141,154 L139,154 Z M139,176 L139,178 L141,178 L141,176 L139,176 Z M139,198 L139,200 L141,200 L141,198 L139,198 Z" id="Line-Copy-7" fill="#0A7FFF" fill-rule="nonzero"></path>
                <path d="M159,0 L159,2 L161,2 L161,0 L159,0 Z M159,22 L159,24 L161,24 L161,22 L159,22 Z M159,44 L159,46 L161,46 L161,44 L159,44 Z M159,66 L159,68 L161,68 L161,66 L159,66 Z M159,88 L159,90 L161,90 L161,88 L159,88 Z M159,110 L159,112 L161,112 L161,110 L159,110 Z M159,132 L159,134 L161,134 L161,132 L159,132 Z M159,154 L159,156 L161,156 L161,154 L159,154 Z M159,176 L159,178 L161,178 L161,176 L159,176 Z M159,198 L159,200 L161,200 L161,198 L159,198 Z" id="Line-Copy-8" fill="#0A7FFF" fill-rule="nonzero"></path>
                <path d="M179,0 L179,2 L181,2 L181,0 L179,0 Z M179,22 L179,24 L181,24 L181,22 L179,22 Z M179,44 L179,46 L181,46 L181,44 L179,44 Z M179,66 L179,68 L181,68 L181,66 L179,66 Z M179,88 L179,90 L181,90 L181,88 L179,88 Z M179,110 L179,112 L181,112 L181,110 L179,110 Z M179,132 L179,134 L181,134 L181,132 L179,132 Z M179,154 L179,156 L181,156 L181,154 L179,154 Z M179,176 L179,178 L181,178 L181,176 L179,176 Z M179,198 L179,200 L181,200 L181,198 L179,198 Z" id="Line-Copy-9" fill="#0A7FFF" fill-rule="nonzero"></path>
                <path d="M199,0 L199,2 L201,2 L201,0 L199,0 Z M199,22 L199,24 L201,24 L201,22 L199,22 Z M199,44 L199,46 L201,46 L201,44 L199,44 Z M199,66 L199,68 L201,68 L201,66 L199,66 Z M199,88 L199,90 L201,90 L201,88 L199,88 Z M199,110 L199,112 L201,112 L201,110 L199,110 Z M199,132 L199,134 L201,134 L201,132 L199,132 Z M199,154 L199,156 L201,156 L201,154 L199,154 Z M199,176 L199,178 L201,178 L201,176 L199,176 Z M199,198 L199,200 L201,200 L201,198 L199,198 Z" id="Line-Copy-10" fill="#0A7FFF" fill-rule="nonzero"></path>
            </g>
        </g>
    </g>
</svg>