<?xml version="1.0" encoding="UTF-8"?>
<svg width="31px" height="32px" viewBox="0 0 31 32" version="1.1" xmlns="http://www.w3.org/2000/svg" xmlns:xlink="http://www.w3.org/1999/xlink">
    <!-- Generator: Sketch 60 (88103) - https://sketch.com -->
    <title>Group 8 Copy</title>
    <desc>Created with Sketch.</desc>
    <defs>
        <polygon id="path-1" points="0 0.0263871785 31.853287 0.0263871785 31.853287 28.59375 0 28.59375"></polygon>
    </defs>
    <g id="Website-Mocks" stroke="none" stroke-width="1" fill="none" fill-rule="evenodd">
        <g id="Mobile" transform="translate(-16.000000, -22.000000)">
            <g id="Group-8-Copy" transform="translate(16.000000, 22.000000)">
                <g id="Group-3" transform="translate(0.000000, 4.218750)">
                    <mask id="mask-2" fill="white">
                        <use xlink:href="#path-1"></use>
                    </mask>
                    <g id="Clip-2"></g>
                    <path d="M0.0269076777,9.66201981 L1.02599377,9.61927652 C0.936606365,7.5299263 1.32266382,5.46583262 2.16210273,3.19385874 C2.35423587,2.67385613 2.61222862,2.13480129 2.96940201,1.48518288 C3.19255336,1.07896412 3.88714573,0.885861926 4.51641957,1.13982924 C4.95590432,1.31719913 5.28302076,1.97790222 5.15293077,2.38958603 L5.08206047,2.60209075 L4.99987965,2.82404626 C4.95456152,2.94113099 4.90185173,3.07018441 4.83702496,3.22384346 L4.42175881,4.19836783 C4.25925306,4.59323135 4.16138271,4.86829588 4.06501017,5.20288377 C2.96086728,9.03821292 3.2383724,12.7683321 4.92610522,16.2921188 C6.67772591,19.9501265 9.4767001,22.5931514 13.2074554,24.0522017 C18.6752067,26.1906627 23.9154033,25.5532172 28.7300628,22.1694227 C29.4845583,21.6390487 30.2246238,21.7034448 30.6132183,22.2311381 C31.042576,22.8140872 30.9005067,23.4715069 30.1254942,24.037957 C26.3547748,26.7939884 22.1338404,27.938377 17.4016069,27.5043686 C15.0264833,27.2865116 12.8290485,26.6430446 10.805514,25.5621124 C5.79557935,22.8858832 2.65112333,18.8358748 1.36084884,13.3835803 C1.0615686,12.1183819 0.944413378,10.8790463 1.0244818,9.73163215 L0.0269076777,9.66201981 Z" id="Fill-1" fill="#FFFFFF" fill-rule="nonzero" mask="url(#mask-2)"></path>
                </g>
                <path d="M18.7472832,1.01768363 C20.2323828,0.93834869 21.7027963,1.23663687 23.3884803,1.89934611 C24.17739,2.2094797 24.4773273,2.83594871 24.2237361,3.45378448 C23.9214693,4.1901623 23.2637631,4.45767357 22.4946815,4.13716399 C19.7109138,2.97660371 16.8264735,3.12054899 14.0919677,4.48243268 C11.6271201,5.70980215 9.89591457,7.84775778 9.0387675,10.6276015 C8.08442482,13.7233965 8.50696483,16.694644 10.2677773,19.4590954 C10.7314552,20.1870799 10.6030265,20.9097958 10.0137417,21.2932704 C9.41525655,21.6828085 8.74688198,21.5197883 8.28217732,20.8092534 C6.3797163,17.9000198 5.7489054,14.7671232 6.41076725,11.4107561 C7.33762546,6.70958434 10.0584587,3.50115544 14.5581203,1.700176 C15.8934498,1.1656937 17.2767705,0.931895425 18.6311272,1.01713287 L18.6939386,0.0191074635 L18.7472832,1.01768363 Z" id="Fill-4" fill="#FFFFFF" fill-rule="nonzero"></path>
                <path d="M20.217418,21.09375 L20.0966631,21.09375 C20.0361308,21.0314019 19.9698705,20.9740481 19.91615,20.9059002 C18.8417412,19.5471309 17.7693449,18.1870727 16.6957101,16.8276589 C16.1526228,16.1397356 15.6084517,15.452779 15.0650548,14.765339 C14.9834678,14.6622311 14.9789782,14.565084 15.0495734,14.4595595 C15.0687703,14.4308826 15.0899798,14.4038168 15.1090219,14.3751399 C15.7250266,13.4479739 16.3399477,12.5200025 16.9595131,11.5954142 C16.99543,11.541927 17.0664896,11.4882786 17.1259381,11.4818344 C17.4159047,11.4502576 17.7075741,11.4351136 17.9986244,11.4133643 C18.5172511,11.3743766 19.0355682,11.3352278 19.5540402,11.2954346 C19.7545242,11.2799684 19.9548535,11.2503248 20.1553376,11.25 C20.3522609,11.2496804 20.5493391,11.2791628 20.7464172,11.2939846 C21.5525335,11.3552049 22.3589594,11.4136865 23.1646112,11.4803844 C23.2287042,11.4857009 23.2940357,11.5390271 23.3485302,11.5836535 C23.3859952,11.6144247 23.404418,11.6693619 23.4330586,11.7123773 C24.0594359,12.6530762 24.6859679,13.5936139 25.3125,14.5341517 L25.3125,14.6809194 C25.2640432,14.7421397 25.2155865,14.80336 25.1672845,14.8645804 C23.5796674,16.8759908 21.9923599,18.8874012 20.403814,20.8978449 C20.3479261,20.9684094 20.279808,21.0286631 20.217418,21.09375" id="Fill-6" fill="#FAAF40"></path>
            </g>
        </g>
    </g>
</svg>