<?xml version="1.0" encoding="UTF-8"?>
<svg width="689px" height="676px" viewBox="0 0 689 676" version="1.1" xmlns="http://www.w3.org/2000/svg" xmlns:xlink="http://www.w3.org/1999/xlink">
    <!-- Generator: Sketch 60.1 (88133) - https://sketch.com -->
    <title>undraw_add_color_19gv</title>
    <desc>Created with Sketch.</desc>
    <defs>
        <polygon id="path-1" points="0 0.0681157398 82.6194632 0.0681157398 82.6194632 73.8117733 0 73.8117733"></polygon>
        <path d="M52.3439906,54.9999932 C52.1855062,54.8353219 52.0120245,54.683835 51.8713746,54.503838 C49.0583769,50.9149616 46.2506485,47.3226809 43.4396775,43.7321023 C42.017776,41.9151113 40.5930373,40.1006733 39.1703252,38.2849589 C38.9567157,38.012623 38.9449611,37.7560315 39.1297921,37.4773127 C39.1800531,37.4015693 39.2355835,37.3300811 39.2854392,37.2543377 C40.8982516,34.8054423 42.5082266,32.3544192 44.1303616,29.9123322 C44.2243984,29.7710579 44.4104454,29.6293582 44.5660925,29.6123372 C45.3252776,29.5289343 46.0889214,29.488935 46.8509438,29.4314891 C48.2088029,29.3285121 49.5658514,29.2251096 50.9233052,29.1200049 C51.4482089,29.0791545 51.9727073,29.000858 52.4976111,28.9999932 C53.0131922,28.9991559 53.5291787,29.0770269 54.0451651,29.1161752 C56.1557241,29.2778746 58.2670937,29.4323402 60.3764366,29.6085074 C60.5442437,29.6225498 60.7152934,29.7633985 60.8579699,29.8812689 C60.95606,29.9625441 61.0042944,30.1076481 61.0792807,30.2212632 C62.7192502,32.7059027 64.3596251,35.1901167 66,37.6743307 L66,38.0619839 C65.8731314,38.2236833 65.7462627,38.3853827 65.6197994,38.5470822 C61.4631292,43.8597598 57.3072697,49.1724374 53.1481675,54.4825618 C53.0018429,54.6689417 52.8234973,54.828088 52.6601488,54.9999932 L52.3439906,54.9999932 Z" id="path-3"></path>
        <filter x="-59.3%" y="-53.8%" width="218.5%" height="223.1%" filterUnits="objectBoundingBox" id="filter-4">
            <feOffset dx="0" dy="2" in="SourceAlpha" result="shadowOffsetOuter1"></feOffset>
            <feGaussianBlur stdDeviation="5" in="shadowOffsetOuter1" result="shadowBlurOuter1"></feGaussianBlur>
            <feColorMatrix values="0 0 0 0 0.980392157   0 0 0 0 0.68627451   0 0 0 0 0.250980392  0 0 0 1 0" type="matrix" in="shadowBlurOuter1"></feColorMatrix>
        </filter>
    </defs>
    <g id="Demo" stroke="none" stroke-width="1" fill="none" fill-rule="evenodd">
        <g id="undraw_add_color_19gv">
            <path d="M53.54649,614.88742 C63.24981,650.75673 96.48588,672.97149 96.48588,672.97149 C96.48588,672.97149 113.98975,637.03062 104.28643,601.16131 C94.58311,565.292 61.34704,543.07724 61.34704,543.07724 C61.34704,543.07724 43.84322,579.01811 53.54649,614.88742 Z" id="Path" fill="#3F3D56" fill-rule="nonzero"></path>
            <path d="M98.94482,674.1698 L97.61989,674.09745 C97.21631,674.07597 56.96156,671.59456 30.33194,645.67262 C3.70345,619.75069 0.14074,579.57677 0.10794,579.17319 L-6e-05,577.85165 L1.32486,577.924 C1.72844,577.94548 41.98319,580.42689 68.61224,606.34883 C95.2413,632.2719 98.80401,672.44468 98.8368,672.84827 L98.94482,674.1698 Z M2.56393,580.34663 C3.43723,587.5184 8.69453,621.37863 31.9474,644.01308 C55.20027,666.64984 89.18763,670.99428 96.38088,671.67483 C95.50759,664.50192 90.25028,630.644 66.99688,608.00838 L66.99688,608.00838 C43.72702,585.35469 9.75379,581.02378 2.56393,580.34663 Z" id="Shape" fill="#3F3D56" fill-rule="nonzero"></path>
            <circle id="Oval" fill="#3F3D56" fill-rule="nonzero" cx="649.53119" cy="630.53119" r="25.53119"></circle>
            <rect id="Rectangle" fill="#D0CDE1" fill-rule="nonzero" x="201.52494" y="378.44" width="348.27997" height="295.84998"></rect>
            <path d="M495.51734,634.98249 L143.46302,634.98249 L143.46302,335.35575 L495.51734,335.35575 L495.51734,634.98249 Z M147.24292,631.2026 L491.73744,631.2026 L491.73744,339.13569 L147.24292,339.13569 L147.24292,631.2026 Z" id="Shape" fill="#3F3D56" fill-rule="nonzero"></path>
            <path d="M368.575,257.40007 L361.43641,265.83571 C360.13362,267.272481 358.284423,268.09193 356.344945,268.09193 C354.405467,268.09193 352.55627,267.272481 351.25348,265.83571 L344.11489,257.40007 L344.11489,198.78829 L368.575,198.78829 L368.575,257.40007 Z" id="Path" fill="#0A7FFF" fill-rule="nonzero"></path>
            <path d="M395.26522,151.22693 L382.12601,151.22693 C385.699431,146.02954 387.608336,139.868588 387.59952,133.56128 C387.59952,116.29987 373.60636,86 356.34495,86 C339.08354,86 325.09037,116.29987 325.09037,133.56128 C325.081554,139.868588 326.990459,146.02954 330.56388,151.22693 L317.42472,151.22693 C311.908574,151.243076 307.440866,155.710784 307.42472,161.22693 L307.42472,168.40485 C307.440866,173.920996 311.908574,178.388704 317.42472,178.40485 L395.26522,178.40485 C400.781366,178.388704 405.249074,173.920996 405.26522,168.40485 L405.26522,161.22693 C405.249074,155.710784 400.781366,151.243076 395.26522,151.22693 Z" id="Path" fill="#3F3D56" fill-rule="nonzero"></path>
            <path d="M356.34495,276.316503 C353.02234,276.3304 349.890797,274.76463 347.90842,272.09815 L337.00022,257.5542 L337.00022,157.02149 L375.68967,157.02149 L375.68967,257.5542 L364.78147,272.09815 C362.799095,274.764627 359.667557,276.330397 356.34495,276.316503 L356.34495,276.316503 Z M339.00022,256.88721 L349.50803,270.89795 C351.122006,273.04992 353.654983,274.31641 356.344945,274.31641 C359.034907,274.31641 361.567884,273.04992 363.18186,270.89795 L373.68967,256.88721 L373.68967,159.02149 L339.00022,159.02149 L339.00022,256.88721 Z" id="Shape" fill="#3F3D56" fill-rule="nonzero"></path>
            <path d="M368.34495,309 C368.34495,315.627417 362.972367,321 356.34495,321 C349.717533,321 344.34495,315.627417 344.34495,309 C344.34495,302.37259 356.34495,289 356.34495,289 C356.34495,289 368.34495,302.37259 368.34495,309 Z" id="Path" fill="#0A7FFF" fill-rule="nonzero"></path>
            <path d="M549.34495,379.44001 C548.981408,475.091239 471.185534,552.44001 375.34495,552.44001 C279.504366,552.44001 201.708492,475.091239 201.34495,379.44001 L549.34495,379.44001 Z" id="Path" fill="#0A7FFF" fill-rule="nonzero" opacity="0.2"></path>
            <path d="M519.34495,378.44001 C519.049074,458.055755 454.664819,522.44001 375.34495,522.44001 C296.025081,522.44001 231.640826,458.055755 231.34495,378.44001 L519.34495,378.44001 Z" id="Path" fill="#0A7FFF" fill-rule="nonzero"></path>
            <circle id="Oval" fill="#3F3D56" fill-rule="nonzero" cx="266.34495" cy="32" r="32"></circle>
            <circle id="Oval-Copy-2" fill="#FFFFFF" fill-rule="nonzero" cx="177" cy="32" r="32"></circle>
            <circle id="Oval" fill="#0A7FFF" fill-rule="nonzero" cx="356.34495" cy="32" r="32"></circle>
            <circle id="Oval" fill="#D0CDE1" fill-rule="nonzero" cx="446.34495" cy="32" r="32"></circle>
            <circle id="Oval-Copy" fill="#FAAF40" fill-rule="nonzero" cx="536" cy="32" r="32"></circle>
            <g id="Group-8-Copy" transform="translate(329.000000, 399.000000)">
                <g id="Group-3" transform="translate(0.000000, 11.000000)">
                    <mask id="mask-2" fill="white">
                        <use xlink:href="#path-1"></use>
                    </mask>
                    <g id="Clip-2"></g>
                    <path d="M0.0697917889,24.941493 L2.66117133,24.8311557 C2.42932276,19.4377167 3.43065929,14.1094749 5.60795396,8.24461209 C6.10629928,6.90227979 6.77546799,5.51076613 7.70188645,3.83384417 C8.28068527,2.78523295 10.0822842,2.28675986 11.7144632,2.9423499 C12.8543768,3.4002117 13.7028351,5.1057476 13.3654142,6.16846626 L13.1815943,6.71702496 L12.9684378,7.28997987 C12.8508939,7.59222186 12.7141779,7.92535975 12.5460335,8.32201452 L11.4689369,10.8376472 C11.0474376,11.856946 10.7935864,12.5669963 10.5436201,13.4307 C7.67974952,23.3312008 8.39952841,32.960113 12.7770854,42.0563998 C17.3203516,51.4991636 24.5801909,58.3218559 34.2568373,62.0882416 C48.4388174,67.6084548 62.0305772,65.9629561 74.5186003,57.2280447 C76.4755731,55.8589397 78.3951179,56.0251716 79.4030349,57.3873564 C80.5166815,58.8921785 80.1481892,60.5892387 78.1380006,62.0514704 C68.3576971,69.1658771 57.4096485,72.1199965 45.1354179,70.9996493 C38.974941,70.4372741 33.2753445,68.7762315 28.0268019,65.985918 C15.0322839,59.0775125 6.87635114,48.6228397 3.52970168,34.5483118 C2.75344355,31.2823346 2.4495722,28.0831195 2.65724966,25.12119 L0.0697917889,24.941493 Z" id="Fill-1" fill="#FFFFFF" fill-rule="nonzero" mask="url(#mask-2)"></path>
                </g>
                <path d="M48.5951567,2.60332256 C52.4397234,2.39649363 56.2462712,3.17414124 60.610103,4.9018471 C62.652401,5.71037608 63.4288666,7.34360243 62.7723799,8.95432164 C61.9898836,10.874084 60.2872399,11.5714952 58.2962721,10.7359156 C51.0897651,7.71029489 43.6226409,8.0855652 36.5436613,11.636043 C30.162762,14.8358376 25.6810861,20.4095618 23.4621379,27.6567105 C20.9915736,35.727555 22.0854283,43.4736998 26.6437495,50.6807202 C27.8441005,52.5786008 27.5116294,54.4627461 25.9861122,55.4624777 C24.4367778,56.4780171 22.7065163,56.0530176 21.5035074,54.2006287 C16.5784921,46.6161561 14.9454739,38.4485866 16.6588755,29.6984214 C19.0582891,17.4423043 26.1018738,9.07781938 37.7504186,4.38260375 C41.2072665,2.98918994 44.788352,2.37966975 48.2944566,2.60188672 L48.4570604,0 L48.5951567,2.60332256 Z" id="Fill-4" fill="#FFFFFF" fill-rule="nonzero"></path>
                <g id="Fill-6">
                    <use fill="black" fill-opacity="1" filter="url(#filter-4)" xlink:href="#path-3"></use>
                    <use fill="#FAAF40" fill-rule="evenodd" xlink:href="#path-3"></use>
                </g>
            </g>
            <rect id="Rectangle" fill="#3F3D56" fill-rule="nonzero" x="35.2515" y="672.99633" width="652.89371" height="2.31523"></rect>
        </g>
    </g>
</svg>