<?xml version="1.0" encoding="UTF-8"?>
<svg width="166px" height="166px" viewBox="0 0 166 166" version="1.1" xmlns="http://www.w3.org/2000/svg" xmlns:xlink="http://www.w3.org/1999/xlink">
    <!-- Generator: Sketch 60 (88103) - https://sketch.com -->
    <title>Xmark</title>
    <desc>Created with Sketch.</desc>
    <g id="Website-Mocks" stroke="none" stroke-width="1" fill="none" fill-rule="evenodd">
        <g id="Minimalist-1-Copy-10" transform="translate(-1131.000000, -171.000000)" fill="#FF3400">
            <path d="M1214,233.02508 L1271.68103,175.344048 C1277.4731,169.551984 1286.86389,169.551984 1292.65595,175.344048 C1298.44802,181.136113 1298.44802,190.526904 1292.65595,196.318969 L1234.97492,254 L1292.65595,311.681031 C1298.44802,317.473096 1298.44802,326.863887 1292.65595,332.655952 C1286.86389,338.448016 1277.4731,338.448016 1271.68103,332.655952 L1214,274.97492 L1156.31897,332.655952 C1150.5269,338.448016 1141.13611,338.448016 1135.34405,332.655952 C1129.55198,326.863887 1129.55198,317.473096 1135.34405,311.681031 L1193.02508,254 L1135.34405,196.318969 C1129.55198,190.526904 1129.55198,181.136113 1135.34405,175.344048 C1141.13611,169.551984 1150.5269,169.551984 1156.31897,175.344048 L1214,233.02508 Z" id="Xmark"></path>
        </g>
    </g>
</svg>