<?xml version="1.0" encoding="UTF-8"?>
<svg width="46px" height="49px" viewBox="0 0 46 49" version="1.1" xmlns="http://www.w3.org/2000/svg" xmlns:xlink="http://www.w3.org/1999/xlink">
    <!-- Generator: Sketch 60 (88103) - https://sketch.com -->
    <title>yg.is blue</title>
    <desc>Created with Sketch.</desc>
    <g id="Website-Mocks" stroke="none" stroke-width="1" fill="none" fill-rule="evenodd">
        <g id="Mobile" transform="translate(-157.000000, -4214.000000)" fill-rule="nonzero">
            <g id="yg.is-blue" transform="translate(160.000000, 4216.000000)">
                <polygon id="otherside" stroke="#000000" stroke-width="2" fill="#FFFFFF" points="0 11 19 21.1130154 19 45 0 35.0558867"></polygon>
                <line x1="19.5" y1="21" x2="19.5" y2="45" id="Path" stroke="#000000" stroke-width="2" fill="#FFFFFF"></line>
                <polygon id="side" stroke="#000000" stroke-width="2" fill="#FFFFFF" points="39 11 20 21.1130154 20 45 39 35.0558867"></polygon>
                <polygon id="top" stroke="#000000" stroke-width="2" fill="#FFFFFF" points="40 10.5 20 0 0 10.5 20 21"></polygon>
                <polyline id="Path" stroke="#000000" stroke-width="2" fill="#FFFFFF" points="0 10 20 20 40 10"></polyline>
                <path d="M13.9994955,26.6341908 C14.0077722,26.8186416 13.9137706,26.9943913 13.7497573,27.1011127 L10.5254583,29.1490155 L10.4853218,31.4426667 C10.4853218,31.9874088 10.0794972,32.1512411 9.41501514,31.8522472 C8.81567435,31.6030477 8.418125,31.067225 8.38484494,30.4637691 L8.407143,28.1660222 L5.24973823,23.0995106 C5.10274505,22.8879548 5.01680102,22.645518 5,22.395032 C5,21.9854514 5.44596113,21.8830563 6.01679137,22.141092 C6.37757844,22.3049879 6.67035297,22.5724406 6.85073867,22.9029119 L9.47299009,27.1543582 L12.1487568,25.4013533 C12.376197,25.2457127 12.594718,25.2498085 12.9916234,25.430024 C13.5221081,25.6555069 13.8986494,26.105384 13.9994955,26.6341908 Z" id="Path" fill="#000000"></path>
                <path d="M25,29.1158929 C25,26.494584 26.9585941,23.7858981 29.7664901,22.5126909 C31.5474242,21.7096549 33.1550313,21.859444 33.6663457,22.8954852 C33.7502678,23.0331311 33.7950931,23.189518 33.7963409,23.3490132 C33.7522779,23.9112157 33.3866433,24.4033835 32.847376,24.6263812 C32.7016113,24.724384 32.5203765,24.7607175 32.3459512,24.7269056 C32.1715259,24.6930936 32.0191642,24.5920933 31.9244102,24.4474665 C31.4607607,23.8191845 30.6721233,23.7110035 29.6148291,24.1894964 C27.991622,24.9412296 26.9487316,26.5077381 26.9195956,28.2379624 C26.9195956,29.9979842 27.9508907,30.5888189 29.688493,29.806587 C30.9884449,29.2115915 31.7987482,28.3544651 32.045739,27.2352078 L29.7274916,28.2837313 C29.1078479,28.5625055 28.8045258,28.4293596 28.8045258,27.9092586 C28.8378535,27.3733872 29.2010758,26.9083551 29.7274916,26.7275892 L33.1333654,25.1964119 C33.7530091,24.9176378 34,25.0549444 34,25.7206737 C34,27.9550275 32.2667309,30.2517934 29.7101589,31.4126588 C26.8502648,32.7191525 25.0043332,31.799614 25,29.1158929 Z" id="Path" fill="#000000"></path>
                <path d="M14.399394,9.14749409 C14.8446093,8.9508353 15.345591,8.9508353 15.7908064,9.14749409 C16.1324845,9.3436683 16.0460358,9.65318761 15.6014425,9.84936182 C15.1555988,10.0502127 14.6517573,10.0502127 14.2059136,9.84936182 C13.868352,9.65318761 13.9548007,9.34802773 14.399394,9.14749409 Z" id="Path" fill="#000000"></path>
                <path d="M15.1580817,10.4029314 C14.9006071,10.244984 14.9638465,10.0462761 15.3026289,9.89342377 L18.0941957,8.56870388 L17.8457553,8.41585158 C17.5611781,8.23752391 17.601832,8.03372085 17.9406144,7.87577347 C18.2549794,7.70704003 18.6200109,7.70704003 18.934376,7.87577347 L19.6977657,8.34961559 C19.9597574,8.51265804 19.896518,8.71136602 19.5577356,8.85912324 L16.7661688,10.1838431 L17.0100921,10.3366954 C17.2991864,10.5150231 17.2630496,10.7137311 16.9242672,10.8716785 C16.608794,11.0427738 16.2414617,11.0427738 15.9259884,10.8716785 L15.1580817,10.4029314 Z M20.3617791,7.16246276 C20.813499,6.94584575 21.3239111,6.94584575 21.7756309,7.16246276 C22.1279646,7.38155105 22.0602082,7.70763595 21.6084983,7.92672424 C21.152863,8.14769806 20.6367305,8.14769806 20.1810952,7.92672424 C19.8287615,7.70763595 19.9010351,7.38155105 20.3617791,7.16246276 L20.3617791,7.16246276 Z" id="Shape" fill="#000000"></path>
                <path d="M17.0529825,11.334161 C17.1026632,11.2126056 17.1902413,11.1205868 17.2960029,11.0788182 C17.5730097,10.9296092 17.8885535,10.9296092 18.1655602,11.0788182 C18.2188378,11.1044322 18.2595052,11.158607 18.2758193,11.2256991 C18.2921335,11.2927911 18.2822779,11.3653303 18.2490985,11.4223704 C18.1313855,11.714854 18.218721,11.9284134 18.5300908,12.1419729 C18.7753937,12.336855 19.0794368,12.386306 19.357879,12.2766082 C19.6654517,12.1187599 19.4148369,11.8912726 19.0996699,11.6080742 C18.6402094,11.2088109 18.0934136,10.7120531 19.0313204,10.2152952 C19.816497,9.87006403 20.6840238,9.94245911 21.4235523,10.4149269 C21.9133903,10.7445512 22.0880612,11.1623849 21.9589566,11.5198649 C21.9127281,11.6446463 21.8237871,11.738097 21.7159362,11.7752077 C21.4651296,11.9076689 21.1807237,11.9076689 20.9299171,11.7752077 C20.8008126,11.6869984 20.7666378,11.6034316 20.8008126,11.4548685 C20.8463789,11.1995257 20.751449,11.0138218 20.5122258,10.8466884 C20.3132926,10.6932067 20.0706529,10.6493818 19.8439198,10.7259808 C19.6312769,10.8327606 19.8439198,11.0416774 20.0945346,11.2923777 C20.516023,11.714854 21.1083852,12.2580378 20.0945346,12.773366 C19.2704614,13.144752 18.3547226,13.0565397 17.5883868,12.531951 C17.1137376,12.2255396 16.8897032,11.7380669 17.0529825,11.334161 Z" id="Path" fill="#000000"></path>
            </g>
        </g>
    </g>
</svg>